{
    "asset" : {
        "generator" : "Khronos glTF Blender I/O v1.3.48",
        "version" : "2.0"
    },
    "scene" : 0,
    "scenes" : [
        {
            "name" : "Scene",
            "nodes" : [
                0,
                1
            ]
        }
    ],
    "nodes" : [
        {
            "name" : "Light",
            "rotation" : [
                0.16907575726509094,
                0.7558803558349609,
                -0.27217137813568115,
                0.570947527885437
            ],
            "translation" : [
                4.076245307922363,
                5.903861999511719,
                -1.0054539442062378
            ]
        },
        {
            "mesh" : 0,
            "name" : "Cube.001"
        }
    ],
    "meshes" : [
        {
            "name" : "Cube.002",
            "primitives" : [
                {
                    "attributes" : {
                        "POSITION" : 0,
                        "NORMAL" : 1,
                        "TEXCOORD_0" : 2
                    },
                    "indices" : 3
                }
            ]
        }
    ],
    "accessors" : [
        {
            "bufferView" : 0,
            "componentType" : 5126,
            "count" : 1146,
            "max" : [
                3.3010268211364746,
                7.442143440246582,
                2.679809331893921
            ],
            "min" : [
                -2.679809093475342,
                0.15203091502189636,
                -2.6798086166381836
            ],
            "type" : "VEC3"
        },
        {
            "bufferView" : 1,
            "componentType" : 5126,
            "count" : 1146,
            "type" : "VEC3"
        },
        {
            "bufferView" : 2,
            "componentType" : 5126,
            "count" : 1146,
            "type" : "VEC2"
        },
        {
            "bufferView" : 3,
            "componentType" : 5123,
            "count" : 6144,
            "type" : "SCALAR"
        }
    ],
    "bufferViews" : [
        {
            "buffer" : 0,
            "byteLength" : 13752,
            "byteOffset" : 0
        },
        {
            "buffer" : 0,
            "byteLength" : 13752,
            "byteOffset" : 13752
        },
        {
            "buffer" : 0,
            "byteLength" : 9168,
            "byteOffset" : 27504
        },
        {
            "buffer" : 0,
            "byteLength" : 12288,
            "byteOffset" : 36672
        }
    ],
    "buffers" : [
        {
            "byteLength" : 48960,
            "uri" : "mimi.bin"
        }
    ]
}
